<?xml version="1.0" encoding="utf-8"?>
<!-- Generator: Adobe Illustrator 25.0.0, SVG Export Plug-In . SVG Version: 6.00 Build 0)  -->
<svg version="1.1" id="Livello_1" xmlns="http://www.w3.org/2000/svg" xmlns:xlink="http://www.w3.org/1999/xlink" x="0px" y="0px"
	 viewBox="0 0 33 34" style="enable-background:new 0 0 33 34;" xml:space="preserve">
<style type="text/css">
	.st0{fill:url(#SVGID_1_);}
	.st1{fill:none;stroke:#B7B7B7;stroke-width:2;stroke-linecap:round;stroke-linejoin:round;}
	.st2{fill:#333333;}
</style>
<linearGradient id="SVGID_1_" gradientUnits="userSpaceOnUse" x1="4.1111" y1="17" x2="28.8889" y2="17">
	<stop  offset="0" style="stop-color:#00BFED"/>
	<stop  offset="1" style="stop-color:#008CD6"/>
</linearGradient>
<circle class="st0" cx="16.5" cy="17" r="12.4"/>
<path class="st1" d="M-39.4,28l12.8-12.9L-39.4,2.2"/>
<path class="st2" d="M16.5,26.7c-0.6,0-1-0.2-1.4-0.5c-0.3-0.3-0.5-0.8-0.5-1.3c0-0.5,0.2-0.9,0.5-1.3c0.3-0.4,0.8-0.5,1.3-0.5
	s1,0.2,1.3,0.5c0.3,0.3,0.5,0.8,0.5,1.3s-0.2,0.9-0.5,1.3C17.5,26.5,17.1,26.7,16.5,26.7z M14.2,11.8V8.6c0-0.9,0.8-1.3,2.3-1.3
	c1.5,0,2.3,0.4,2.3,1.3v3.2L18,21.3h-2.9L14.2,11.8z"/>
</svg>
